<svg xmlns="http://www.w3.org/2000/svg" xmlns:xlink="http://www.w3.org/1999/xlink" width="500" zoomAndPan="magnify" viewBox="0 0 375 374.999991" height="500" preserveAspectRatio="xMidYMid meet" version="1.2"><defs><clipPath id="f3d676b51e"><path d="M 32.339844 14 L 342.839844 14 L 342.839844 361.734375 L 32.339844 361.734375 Z M 32.339844 14 "/></clipPath><clipPath id="b3a6d67d48"><path d="M 47 63 L 328 63 L 328 313 L 47 313 Z M 47 63 "/></clipPath><clipPath id="9bccb6ab3c"><path d="M 2.945312 126.246094 L 227.027344 -3.128906 L 372.527344 248.886719 L 148.445312 378.261719 Z M 2.945312 126.246094 "/></clipPath><clipPath id="198468a06c"><path d="M 2.945312 126.246094 L 227.027344 -3.128906 L 372.527344 248.886719 L 148.445312 378.261719 Z M 2.945312 126.246094 "/></clipPath><clipPath id="fd9fad5040"><path d="M 43 59 L 333 59 L 333 317 L 43 317 Z M 43 59 "/></clipPath><clipPath id="bd02adffbb"><path d="M 2.945312 126.246094 L 227.027344 -3.128906 L 372.527344 248.886719 L 148.445312 378.261719 Z M 2.945312 126.246094 "/></clipPath><clipPath id="882d78cc45"><path d="M 2.945312 126.246094 L 227.027344 -3.128906 L 372.527344 248.886719 L 148.445312 378.261719 Z M 2.945312 126.246094 "/></clipPath><clipPath id="22facc9330"><path d="M 108.824219 99.007812 L 266.324219 99.007812 L 266.324219 276 L 108.824219 276 Z M 108.824219 99.007812 "/></clipPath></defs><g id="14c1bf3341"><path style=" stroke:none;fill-rule:nonzero;fill:#272727;fill-opacity:1;" d="M 336.621094 258.628906 L 336.621094 117.546875 C 336.621094 107.878906 331.460938 98.945312 323.089844 94.109375 L 200.90625 23.570312 C 192.53125 18.734375 182.214844 18.734375 173.847656 23.570312 L 51.664062 94.109375 C 43.285156 98.945312 38.132812 107.878906 38.132812 117.546875 L 38.132812 258.628906 C 38.132812 268.296875 43.292969 277.230469 51.664062 282.066406 L 173.847656 352.605469 C 182.222656 357.441406 192.539062 357.441406 200.90625 352.605469 L 323.085938 282.066406 C 331.460938 277.230469 336.621094 268.296875 336.621094 258.628906 Z M 336.621094 258.628906 "/><g clip-rule="nonzero" clip-path="url(#f3d676b51e)"><path style=" stroke:none;fill-rule:nonzero;fill:#478cbf;fill-opacity:1;" d="M 187.378906 361.734375 C 181.742188 361.734375 176.109375 360.28125 171.089844 357.386719 L 48.90625 286.84375 C 38.863281 281.042969 32.617188 270.230469 32.617188 258.628906 L 32.617188 117.546875 C 32.617188 105.945312 38.863281 95.132812 48.90625 89.332031 L 171.089844 18.789062 C 181.140625 12.992188 193.621094 12.992188 203.664062 18.789062 L 325.847656 89.332031 C 335.894531 95.132812 342.136719 105.945312 342.136719 117.546875 L 342.136719 258.628906 C 342.136719 270.230469 335.894531 281.042969 325.847656 286.84375 L 203.664062 357.386719 C 198.644531 360.28125 193.011719 361.734375 187.378906 361.734375 Z M 187.378906 25.464844 C 183.652344 25.464844 179.925781 26.421875 176.605469 28.339844 L 54.421875 98.882812 C 47.773438 102.714844 43.648438 109.871094 43.648438 117.546875 L 43.648438 258.628906 C 43.648438 266.304688 47.773438 273.453125 54.421875 277.292969 L 176.605469 347.835938 C 183.25 351.667969 191.503906 351.667969 198.148438 347.835938 L 320.335938 277.292969 C 326.980469 273.457031 331.105469 266.304688 331.105469 258.628906 L 331.105469 117.546875 C 331.105469 109.871094 326.980469 102.722656 320.335938 98.882812 L 198.148438 28.347656 C 194.828125 26.421875 191.101562 25.464844 187.378906 25.464844 Z M 187.378906 25.464844 "/></g><g clip-rule="nonzero" clip-path="url(#b3a6d67d48)"><g clip-rule="nonzero" clip-path="url(#9bccb6ab3c)"><g clip-rule="nonzero" clip-path="url(#198468a06c)"><path style=" stroke:none;fill-rule:nonzero;fill:#272727;fill-opacity:1;" d="M 324.914062 176.742188 L 266.128906 74.917969 C 262.097656 67.941406 254.652344 63.644531 246.597656 63.644531 L 129.019531 63.644531 C 120.960938 63.644531 113.515625 67.945312 109.492188 74.921875 L 50.703125 176.742188 C 46.671875 183.722656 46.671875 192.316406 50.703125 199.292969 L 109.488281 301.117188 C 113.519531 308.09375 120.964844 312.390625 129.019531 312.394531 L 246.59375 312.390625 C 254.65625 312.390625 262.097656 308.09375 266.125 301.117188 L 324.910156 199.296875 C 328.941406 192.316406 328.941406 183.71875 324.914062 176.742188 Z M 324.914062 176.742188 "/></g></g></g><g clip-rule="nonzero" clip-path="url(#fd9fad5040)"><g clip-rule="nonzero" clip-path="url(#bd02adffbb)"><g clip-rule="nonzero" clip-path="url(#882d78cc45)"><path style=" stroke:none;fill-rule:nonzero;fill:#478cbf;fill-opacity:1;" d="M 260.164062 313.339844 C 256.097656 315.6875 251.425781 316.988281 246.597656 316.988281 L 129.019531 316.992188 C 119.355469 316.988281 110.34375 311.785156 105.507812 303.414062 L 46.722656 201.59375 C 41.886719 193.222656 41.886719 182.8125 46.71875 174.445312 L 105.507812 72.621094 C 110.347656 64.246094 119.355469 59.046875 129.019531 59.046875 L 246.597656 59.046875 C 256.261719 59.046875 265.273438 64.25 270.105469 72.621094 L 328.894531 174.445312 C 333.726562 182.816406 333.726562 193.222656 328.894531 201.59375 L 270.105469 303.417969 C 267.6875 307.597656 264.230469 310.992188 260.164062 313.339844 Z M 120.046875 70.652344 C 117.359375 72.203125 115.066406 74.449219 113.46875 77.214844 L 54.679688 179.039062 C 51.480469 184.574219 51.484375 191.457031 54.683594 196.996094 L 113.46875 298.820312 C 116.667969 304.359375 122.625 307.796875 129.019531 307.800781 L 246.597656 307.800781 C 252.992188 307.796875 258.949219 304.359375 262.148438 298.820312 L 320.9375 197 C 324.136719 191.460938 324.132812 184.578125 320.933594 179.039062 L 262.148438 77.21875 C 258.949219 71.679688 252.992188 68.238281 246.59375 68.234375 L 129.023438 68.242188 C 125.824219 68.238281 122.734375 69.097656 120.046875 70.652344 Z M 120.046875 70.652344 "/></g></g></g><path style=" stroke:none;fill-rule:nonzero;fill:#272727;fill-opacity:1;" d="M 263.234375 223.664062 L 263.234375 152.070312 C 263.234375 147.164062 260.617188 142.628906 256.371094 140.175781 L 194.367188 104.378906 C 190.113281 101.925781 184.878906 101.925781 180.632812 104.378906 L 118.628906 140.175781 C 114.378906 142.628906 111.765625 147.164062 111.765625 152.070312 L 111.765625 223.664062 C 111.765625 228.570312 114.382812 233.101562 118.628906 235.554688 L 180.632812 271.351562 C 184.882812 273.804688 190.117188 273.804688 194.367188 271.351562 L 256.367188 235.554688 C 260.617188 233.101562 263.234375 228.570312 263.234375 223.664062 Z M 263.234375 223.664062 "/><g clip-rule="nonzero" clip-path="url(#22facc9330)"><path style=" stroke:none;fill-rule:nonzero;fill:#478cbf;fill-opacity:1;" d="M 187.5 275.984375 C 184.640625 275.984375 181.78125 275.246094 179.234375 273.777344 L 117.230469 237.980469 C 112.132812 235.039062 108.964844 229.550781 108.964844 223.664062 L 108.964844 152.070312 C 108.964844 146.183594 112.132812 140.695312 117.230469 137.75 L 179.234375 101.953125 C 184.335938 99.011719 190.667969 99.011719 195.765625 101.953125 L 257.769531 137.75 C 262.867188 140.695312 266.035156 146.183594 266.035156 152.070312 L 266.035156 223.664062 C 266.035156 229.550781 262.867188 235.039062 257.769531 237.980469 L 195.765625 273.777344 C 193.214844 275.246094 190.359375 275.984375 187.5 275.984375 Z M 187.5 105.339844 C 185.609375 105.339844 183.71875 105.828125 182.03125 106.800781 L 120.03125 142.597656 C 116.65625 144.542969 114.5625 148.175781 114.5625 152.070312 L 114.5625 223.664062 C 114.5625 227.558594 116.65625 231.183594 120.03125 233.132812 L 182.03125 268.929688 C 185.40625 270.875 189.59375 270.875 192.964844 268.929688 L 254.96875 233.132812 C 258.34375 231.1875 260.4375 227.558594 260.4375 223.664062 L 260.4375 152.070312 C 260.4375 148.175781 258.34375 144.546875 254.96875 142.597656 L 192.964844 106.804688 C 191.28125 105.828125 189.390625 105.339844 187.5 105.339844 Z M 187.5 105.339844 "/></g></g></svg>